<?xml version="1.0" encoding="utf-8"?>
<!-- Generator: Adobe Illustrator 19.2.0, SVG Export Plug-In . SVG Version: 6.00 Build 0)  -->
<svg version="1.1" id="Capa_1" xmlns="http://www.w3.org/2000/svg" xmlns:xlink="http://www.w3.org/1999/xlink" x="0px" y="0px"
	 viewBox="0 0 918.2 180" style="enable-background:new 0 0 918.2 180;" xml:space="preserve">
<style type="text/css">
	.st0{opacity:0.5;enable-background:new    ;}
	.st1{enable-background:new    ;}
</style>
<line class="st0" x1="100.5" y1="69.1" x2="100.5" y2="87.5"/>
<polyline class="st1" points="27.3,87.5 27.3,153 38.1,153 48.9,153 135.3,153 135.3,27 48.9,27 38.1,27 27.3,27 27.3,67.4 "/>
<g>
	<path d="M261.8,55.6L242,119.2h-10.7l-13.9-43.5c-0.4-1.1-0.7-2.3-1.1-3.9c-0.2,0.7-0.4,1.4-0.5,2.1c-0.2,0.6-0.4,1.2-0.6,1.8
		l-14,43.5h-10.7l-19.7-63.6h9.9c1,0,1.9,0.2,2.6,0.7c0.7,0.5,1.2,1.1,1.4,2l10.8,38.1c0.2,0.9,0.5,2,0.7,3.1
		c0.2,1.1,0.4,2.3,0.7,3.5c0.2-1.2,0.5-2.4,0.8-3.5c0.3-1.1,0.6-2.1,0.9-3L211,58.3c0.2-0.7,0.7-1.3,1.4-1.8
		c0.7-0.6,1.5-0.8,2.5-0.8h3.5c1,0,1.9,0.2,2.5,0.7c0.6,0.5,1.1,1.1,1.5,1.9l12.5,38.1c0.6,1.8,1.2,3.9,1.7,6.3
		c0.4-2.3,0.8-4.4,1.3-6.3l10.8-38.1c0.2-0.7,0.6-1.4,1.3-1.9s1.6-0.8,2.6-0.8H261.8z"/>
	<path d="M281.5,65v17.6h22.3v9.1h-22.3v18h28.2v9.5h-40.1V55.6h40.1V65H281.5z"/>
	<path d="M342.1,55.6c4.2,0,7.7,0.4,10.7,1.2c3,0.8,5.4,1.9,7.3,3.4c1.9,1.5,3.3,3.2,4.2,5.3c0.9,2.1,1.3,4.4,1.3,7
		c0,1.5-0.2,2.9-0.7,4.3c-0.4,1.4-1.1,2.6-2,3.8c-0.9,1.2-2.1,2.3-3.5,3.2c-1.4,1-3.1,1.8-5.1,2.5c8.7,2,13.1,6.7,13.1,14.2
		c0,2.7-0.5,5.2-1.5,7.5c-1,2.3-2.5,4.3-4.5,5.9c-2,1.7-4.4,3-7.3,3.9c-2.9,0.9-6.2,1.4-9.9,1.4h-24V55.6H342.1z M332,64.7v18.4h9.4
		c4,0,7.1-0.7,9.2-2.2c2.1-1.5,3.1-3.8,3.1-7c0-3.3-0.9-5.7-2.8-7.1c-1.9-1.4-4.8-2.1-8.8-2.1H332z M344,110c2.2,0,4-0.3,5.5-0.8
		c1.5-0.5,2.7-1.2,3.6-2.1c0.9-0.9,1.5-1.9,1.9-3.1s0.6-2.4,0.6-3.7c0-1.4-0.2-2.6-0.7-3.7c-0.4-1.1-1.1-2-2.1-2.8
		c-0.9-0.8-2.1-1.4-3.6-1.8c-1.5-0.4-3.3-0.6-5.3-0.6H332V110H344z"/>
	<path d="M412,67.2c-0.4,0.6-0.7,1.1-1.1,1.3c-0.4,0.3-0.9,0.4-1.5,0.4c-0.6,0-1.3-0.2-2-0.7c-0.7-0.5-1.6-1-2.6-1.5
		c-1-0.6-2.2-1.1-3.5-1.5c-1.3-0.5-2.9-0.7-4.7-0.7c-1.6,0-3.1,0.2-4.3,0.6s-2.3,0.9-3.1,1.6c-0.8,0.7-1.5,1.5-1.9,2.5
		c-0.4,1-0.6,2.1-0.6,3.2c0,1.5,0.4,2.7,1.3,3.7c0.8,1,1.9,1.8,3.3,2.6c1.4,0.7,2.9,1.3,4.7,1.9c1.8,0.6,3.6,1.2,5.4,1.8
		c1.8,0.6,3.7,1.4,5.4,2.2c1.8,0.8,3.3,1.9,4.7,3.2c1.4,1.3,2.5,2.8,3.3,4.7c0.8,1.8,1.3,4.1,1.3,6.7c0,2.9-0.5,5.6-1.5,8.1
		c-1,2.5-2.4,4.7-4.3,6.6c-1.9,1.9-4.2,3.3-6.9,4.4s-5.9,1.6-9.4,1.6c-2,0-4-0.2-6-0.6c-2-0.4-3.9-1-5.7-1.7
		c-1.8-0.7-3.5-1.6-5.1-2.6s-3-2.2-4.2-3.4l3.5-5.7c0.3-0.4,0.7-0.8,1.1-1c0.5-0.3,1-0.4,1.5-0.4c0.7,0,1.5,0.3,2.4,0.9
		c0.9,0.6,1.9,1.3,3,2s2.5,1.4,4.1,2c1.6,0.6,3.5,0.9,5.7,0.9c3.4,0,6-0.8,7.8-2.4c1.8-1.6,2.8-3.9,2.8-6.9c0-1.7-0.4-3-1.3-4.1
		c-0.8-1.1-1.9-1.9-3.3-2.7c-1.4-0.7-2.9-1.3-4.7-1.8c-1.8-0.5-3.5-1-5.4-1.6c-1.8-0.6-3.6-1.3-5.4-2.1c-1.8-0.8-3.3-1.9-4.7-3.2
		c-1.4-1.3-2.5-3-3.3-5s-1.3-4.4-1.3-7.3c0-2.3,0.5-4.6,1.4-6.8c0.9-2.2,2.3-4.2,4-5.9c1.8-1.7,3.9-3.1,6.5-4.1
		c2.6-1,5.5-1.5,8.9-1.5c3.8,0,7.2,0.6,10.4,1.8c3.2,1.2,5.9,2.8,8.1,4.9L412,67.2z"/>
	<path d="M438.3,119.2h-11.9V55.6h11.9V119.2z"/>
	<path d="M497,65.3h-19.2v53.9h-11.8V65.3h-19.2v-9.7H497V65.3z"/>
	<path d="M517.2,65v17.6h22.3v9.1h-22.3v18h28.2v9.5h-40.1V55.6h40.1V65H517.2z"/>
	<path d="M630.9,55.6v63.6h-6.1c-0.9,0-1.7-0.2-2.4-0.5s-1.2-0.8-1.8-1.6l-33.2-42.4c0.2,1.9,0.3,3.7,0.3,5.4v39.1h-10.4V55.6h6.2
		c0.5,0,0.9,0,1.3,0.1c0.4,0,0.7,0.1,1,0.3c0.3,0.1,0.5,0.3,0.8,0.6c0.3,0.2,0.6,0.6,0.9,1l33.4,42.6c-0.1-1-0.2-2-0.2-3
		s-0.1-1.9-0.1-2.8V55.6H630.9z"/>
	<path d="M699.6,119.2h-9.2c-1,0-1.9-0.3-2.5-0.8c-0.6-0.5-1.1-1.2-1.5-1.9l-4.8-13h-26.4l-4.8,13c-0.2,0.7-0.7,1.3-1.4,1.8
		c-0.7,0.6-1.5,0.8-2.5,0.8h-9.2l25-63.6h12.1L699.6,119.2z M678.7,95.2L671,74c-0.4-0.9-0.8-2.1-1.2-3.3c-0.4-1.3-0.8-2.7-1.2-4.2
		c-0.4,1.5-0.8,2.9-1.2,4.2s-0.8,2.4-1.2,3.4l-7.7,21.1H678.7z"/>
	<path d="M775.2,55.6v63.6h-10.4V78.1c0-1.6,0.1-3.4,0.3-5.3l-19.2,36.1c-0.9,1.7-2.3,2.6-4.2,2.6H740c-1.9,0-3.3-0.9-4.2-2.6
		l-19.4-36.3c0.1,1,0.2,1.9,0.2,2.9c0.1,0.9,0.1,1.8,0.1,2.6v41.1h-10.4V55.6h8.9c0.5,0,1,0,1.4,0c0.4,0,0.7,0.1,1,0.2
		s0.6,0.3,0.8,0.6c0.2,0.3,0.5,0.6,0.7,1.1l19.1,35.3c0.5,0.9,1,1.9,1.4,2.9c0.4,1,0.8,2,1.3,3.1c0.4-1.1,0.8-2.1,1.3-3.1
		c0.4-1,0.9-2,1.4-2.9l18.8-35.2c0.2-0.4,0.5-0.8,0.7-1.1c0.3-0.3,0.6-0.5,0.9-0.6s0.7-0.2,1-0.2c0.4,0,0.8,0,1.4,0H775.2z"/>
	<path d="M801.3,65v17.6h22.3v9.1h-22.3v18h28.2v9.5h-40.1V55.6h40.1V65H801.3z"/>
</g>
</svg>
